<?xml version="1.0" encoding="UTF-8" standalone="no"?>
<!DOCTYPE svg PUBLIC "-//W3C//DTD SVG 1.1//EN"
 "http://www.w3.org/Graphics/SVG/1.1/DTD/svg11.dtd">
<!-- Generated by graphviz version 2.38.0 (20140413.2041)
 -->
<!-- Title: G Pages: 1 -->
<svg width="585pt" height="474pt"
 viewBox="0.00 0.00 585.00 474.00" xmlns="http://www.w3.org/2000/svg" xmlns:xlink="http://www.w3.org/1999/xlink">
<g id="graph0" class="graph" transform="scale(1 1) rotate(0) translate(4 470)">
<title>G</title>
<polygon fill="white" stroke="none" points="-4,4 -4,-470 581,-470 581,4 -4,4"/>
<g id="clust1" class="cluster"><title>cluster_Global</title>
<path fill="none" stroke="gray" d="M20,-8C20,-8 557,-8 557,-8 563,-8 569,-14 569,-20 569,-20 569,-446 569,-446 569,-452 563,-458 557,-458 557,-458 20,-458 20,-458 14,-458 8,-452 8,-446 8,-446 8,-20 8,-20 8,-14 14,-8 20,-8"/>
<text text-anchor="middle" x="288.5" y="-445.2" font-family="Times New Roman,serif" font-size="11.00" fill="gray">Global</text>
</g>
<!-- \\MPay24Shop -->
<g id="node1" class="node"><title>\\MPay24Shop</title>
<polygon fill="none" stroke="black" points="280,-52 196,-52 196,-16 280,-16 280,-52"/>
<text text-anchor="start" x="204" y="-37.2" font-family="Courier,monospace" font-size="11.00">«abstract»</text>
<text text-anchor="start" x="204" y="-25.2" font-family="Courier,monospace" font-size="11.00">MPay24Shop</text>
</g>
<!-- \\Transaction -->
<g id="node2" class="node"><title>\\Transaction</title>
<polygon fill="none" stroke="black" points="107,-52 16,-52 16,-16 107,-16 107,-52"/>
<text text-anchor="middle" x="61.5" y="-31.2" font-family="Courier,monospace" font-size="11.00">Transaction</text>
</g>
<!-- \\MPay24Shop&#45;&gt;\\Transaction -->
<g id="edge1" class="edge"><title>\\MPay24Shop&#45;&gt;\\Transaction</title>
<path fill="none" stroke="black" d="M195.646,-34C172.261,-34 142.726,-34 117.418,-34"/>
<polygon fill="none" stroke="black" points="117.226,-30.5001 107.226,-34 117.226,-37.5001 117.226,-30.5001"/>
</g>
<!-- \\MPay24flexLINK -->
<g id="node3" class="node"><title>\\MPay24flexLINK</title>
<polygon fill="none" stroke="black" points="293.5,-106 182.5,-106 182.5,-70 293.5,-70 293.5,-106"/>
<text text-anchor="start" x="204" y="-91.2" font-family="Courier,monospace" font-size="11.00">«abstract»</text>
<text text-anchor="start" x="190.5" y="-79.2" font-family="Courier,monospace" font-size="11.00">MPay24flexLINK</text>
</g>
<!-- \\ORDER -->
<g id="node4" class="node"><title>\\ORDER</title>
<polygon fill="none" stroke="black" points="492,-430 438,-430 438,-394 492,-394 492,-430"/>
<text text-anchor="middle" x="465" y="-409.2" font-family="Courier,monospace" font-size="11.00">ORDER</text>
</g>
<!-- \\MPay24Api -->
<g id="node5" class="node"><title>\\MPay24Api</title>
<polygon fill="none" stroke="black" points="503.5,-376 426.5,-376 426.5,-340 503.5,-340 503.5,-376"/>
<text text-anchor="middle" x="465" y="-355.2" font-family="Courier,monospace" font-size="11.00">MPay24Api</text>
</g>
<!-- \\GeneralResponse -->
<g id="node6" class="node"><title>\\GeneralResponse</title>
<polygon fill="none" stroke="black" points="297,-241 179,-241 179,-205 297,-205 297,-241"/>
<text text-anchor="middle" x="238" y="-220.2" font-family="Courier,monospace" font-size="11.00">GeneralResponse</text>
</g>
<!-- \\PaymentResponse -->
<g id="node7" class="node"><title>\\PaymentResponse</title>
<polygon fill="none" stroke="black" points="524,-322 406,-322 406,-286 524,-286 524,-322"/>
<text text-anchor="middle" x="465" y="-301.2" font-family="Courier,monospace" font-size="11.00">PaymentResponse</text>
</g>
<!-- \\PaymentResponse&#45;&gt;\\GeneralResponse -->
<g id="edge2" class="edge"><title>\\PaymentResponse&#45;&gt;\\GeneralResponse</title>
<path fill="none" stroke="black" d="M405.889,-288.648C393.623,-285.084 380.82,-281.119 369,-277 341.903,-267.558 312.315,-255.417 288.222,-245.04"/>
<polygon fill="none" stroke="black" points="289.503,-241.781 278.936,-241.012 286.717,-248.203 289.503,-241.781"/>
</g>
<!-- \\ManagePaymentResponse -->
<g id="node8" class="node"><title>\\ManagePaymentResponse</title>
<polygon fill="none" stroke="black" points="544,-268 386,-268 386,-232 544,-232 544,-268"/>
<text text-anchor="middle" x="465" y="-247.2" font-family="Courier,monospace" font-size="11.00">ManagePaymentResponse</text>
</g>
<!-- \\ManagePaymentResponse&#45;&gt;\\GeneralResponse -->
<g id="edge3" class="edge"><title>\\ManagePaymentResponse&#45;&gt;\\GeneralResponse</title>
<path fill="none" stroke="black" d="M385.937,-240.632C360.28,-237.554 331.977,-234.157 307.118,-231.174"/>
<polygon fill="none" stroke="black" points="307.401,-227.683 297.055,-229.967 306.567,-234.633 307.401,-227.683"/>
</g>
<!-- \\ListPaymentMethodsResponse -->
<g id="node9" class="node"><title>\\ListPaymentMethodsResponse</title>
<polygon fill="none" stroke="black" points="561,-214 369,-214 369,-178 561,-178 561,-214"/>
<text text-anchor="middle" x="465" y="-193.2" font-family="Courier,monospace" font-size="11.00">ListPaymentMethodsResponse</text>
</g>
<!-- \\ListPaymentMethodsResponse&#45;&gt;\\GeneralResponse -->
<g id="edge4" class="edge"><title>\\ListPaymentMethodsResponse&#45;&gt;\\GeneralResponse</title>
<path fill="none" stroke="black" d="M368.906,-207.411C348.173,-209.899 326.631,-212.484 307.191,-214.817"/>
<polygon fill="none" stroke="black" points="306.743,-211.346 297.232,-216.012 307.578,-218.296 306.743,-211.346"/>
</g>
<!-- \\TransactionStatusResponse -->
<g id="node10" class="node"><title>\\TransactionStatusResponse</title>
<polygon fill="none" stroke="black" points="557.5,-160 372.5,-160 372.5,-124 557.5,-124 557.5,-160"/>
<text text-anchor="middle" x="465" y="-139.2" font-family="Courier,monospace" font-size="11.00">TransactionStatusResponse</text>
</g>
<!-- \\TransactionStatusResponse&#45;&gt;\\GeneralResponse -->
<g id="edge5" class="edge"><title>\\TransactionStatusResponse&#45;&gt;\\GeneralResponse</title>
<path fill="none" stroke="black" d="M396.74,-160.058C387.369,-162.881 377.905,-165.897 369,-169 341.903,-178.442 312.315,-190.583 288.222,-200.96"/>
<polygon fill="none" stroke="black" points="286.717,-197.797 278.936,-204.988 289.503,-204.219 286.717,-197.797"/>
</g>
<!-- \\MyFlexLINK -->
<g id="node11" class="node"><title>\\MyFlexLINK</title>
<polygon fill="none" stroke="black" points="507,-106 423,-106 423,-70 507,-70 507,-106"/>
<text text-anchor="middle" x="465" y="-85.2" font-family="Courier,monospace" font-size="11.00">MyFlexLINK</text>
</g>
<!-- \\MyFlexLINK&#45;&gt;\\MPay24flexLINK -->
<g id="edge6" class="edge"><title>\\MyFlexLINK&#45;&gt;\\MPay24flexLINK</title>
<path fill="none" stroke="black" d="M422.993,-88C389.715,-88 342.187,-88 303.773,-88"/>
<polygon fill="none" stroke="black" points="303.71,-84.5001 293.71,-88 303.71,-91.5001 303.71,-84.5001"/>
</g>
<!-- \\MyShop -->
<g id="node12" class="node"><title>\\MyShop</title>
<polygon fill="none" stroke="black" points="493.5,-52 436.5,-52 436.5,-16 493.5,-16 493.5,-52"/>
<text text-anchor="middle" x="465" y="-31.2" font-family="Courier,monospace" font-size="11.00">MyShop</text>
</g>
<!-- \\MyShop&#45;&gt;\\MPay24Shop -->
<g id="edge7" class="edge"><title>\\MyShop&#45;&gt;\\MPay24Shop</title>
<path fill="none" stroke="black" d="M436.411,-34C400.158,-34 335.781,-34 290.419,-34"/>
<polygon fill="none" stroke="black" points="290.187,-30.5001 280.187,-34 290.187,-37.5001 290.187,-30.5001"/>
</g>
</g>
</svg>
